<?xml version="1.0" standalone="no"?>
<!DOCTYPE svg PUBLIC "-//W3C//DTD SVG 20010904//EN"
 "http://www.w3.org/TR/2001/REC-SVG-20010904/DTD/svg10.dtd">
<svg version="1.0" xmlns="http://www.w3.org/2000/svg"
 width="2000.000000pt" height="2000.000000pt" viewBox="0 0 2000.000000 2000.000000"
 preserveAspectRatio="xMidYMid meet">
<metadata>
Created by potrace 1.16, written by Peter Selinger 2001-2019
</metadata>
<g transform="translate(0.000000,2000.000000) scale(0.100000,-0.100000)"
fill="#000000" stroke="none">
<path d="M11260 17791 c-191 -58 -342 -296 -402 -631 -26 -148 -35 -473 -19
-695 37 -507 128 -900 366 -1590 259 -748 337 -1026 390 -1392 127 -867 -51
-1719 -502 -2417 -194 -299 -476 -605 -756 -821 -132 -101 -104 -103 132 -9
403 162 771 412 1096 746 475 486 776 1070 871 1693 26 168 26 524 1 684 -68
430 -219 755 -720 1548 -288 456 -392 670 -453 933 -48 209 -43 422 16 645 38
143 79 245 183 447 154 303 191 506 126 684 -27 73 -107 157 -166 173 -43 12
-126 13 -163 2z"/>
<path d="M10254 16946 c-63 -28 -94 -101 -74 -175 15 -56 43 -86 134 -145 155
-101 261 -221 352 -400 27 -53 53 -96 58 -96 15 0 -3 145 -33 263 -33 132 -74
233 -135 337 -102 174 -215 255 -302 216z"/>
<path d="M11588 16475 c-115 -78 -185 -303 -159 -512 12 -103 68 -284 89 -291
9 -3 12 15 12 67 0 144 55 314 142 445 93 136 98 147 98 204 0 46 -4 58 -29
83 -39 39 -100 40 -153 4z"/>
<path d="M11969 16086 c-118 -31 -199 -141 -235 -316 -40 -201 23 -473 188
-805 71 -142 185 -335 199 -335 13 0 12 8 -16 117 -42 171 -50 232 -50 413 0
215 14 289 93 485 52 130 56 146 56 225 1 102 -19 150 -80 192 -48 33 -96 40
-155 24z"/>
<path d="M10975 14206 c-58 -25 -74 -112 -30 -165 14 -16 59 -46 100 -66 91
-45 186 -131 251 -225 67 -98 79 -92 49 25 -52 201 -171 385 -277 430 -45 18
-54 18 -93 1z"/>
<path d="M10893 13631 c-123 -31 -158 -148 -80 -266 26 -38 66 -76 130 -123
202 -150 344 -350 417 -587 12 -38 23 -76 25 -82 8 -25 24 -12 31 25 14 71 8
362 -10 462 -38 216 -113 373 -223 470 -88 77 -212 120 -290 101z"/>
<path d="M10675 12878 c-37 -13 -93 -53 -122 -87 -70 -81 -85 -255 -34 -396
151 -421 181 -540 202 -792 20 -240 -9 -483 -87 -721 -20 -62 -34 -116 -30
-120 8 -7 14 -2 139 153 240 297 425 659 489 959 25 120 30 363 10 461 -54
251 -177 447 -328 521 -47 23 -74 29 -134 31 -41 1 -88 -3 -105 -9z"/>
<path d="M12726 12653 c-167 -599 -421 -1110 -765 -1542 -114 -143 -420 -446
-561 -555 -543 -420 -1168 -675 -1865 -761 -223 -28 -237 -17 -69 56 530 228
877 653 993 1219 51 247 54 563 8 780 -30 138 -57 215 -77 215 -12 0 -16 -27
-22 -145 -28 -609 -343 -1092 -883 -1355 -268 -131 -554 -195 -867 -195 -568
0 -1079 225 -1410 620 -44 52 -98 125 -121 162 -42 67 -71 86 -84 53 -7 -21
14 -339 33 -490 133 -1037 605 -1959 1300 -2536 396 -330 836 -531 1324 -606
160 -25 520 -25 680 0 734 113 1371 517 1863 1182 711 960 967 2303 682 3575
-19 85 -50 205 -68 265 -27 92 -36 110 -54 113 -18 3 -24 -5 -37 -55z"/>
<path d="M7281 12539 c-204 -62 -289 -365 -211 -749 92 -455 348 -810 742
-1028 54 -30 88 -40 88 -26 0 4 -31 39 -68 78 -257 271 -375 610 -332 952 6
54 31 162 53 239 37 123 42 152 42 240 -1 110 -16 159 -70 223 -54 64 -163 96
-244 71z"/>
<path d="M7838 11384 c-36 -19 -58 -63 -58 -113 0 -59 10 -78 92 -168 100
-110 159 -231 192 -394 7 -34 17 -64 23 -66 18 -6 35 122 35 257 0 329 -138
564 -284 484z"/>
<path d="M7936 8194 c-27 -26 -18 -55 54 -182 138 -243 273 -424 455 -611 243
-250 498 -425 810 -557 121 -51 187 -93 268 -172 86 -85 147 -181 189 -302
l33 -95 3 -1475 c2 -1316 1 -1483 -14 -1560 -32 -172 -117 -325 -252 -452
-118 -110 -220 -158 -527 -243 -250 -70 -556 -168 -638 -205 -58 -26 -81 -58
-72 -100 14 -65 -121 -60 1755 -60 1876 0 1741 -5 1755 60 9 42 -14 74 -72
100 -82 37 -388 135 -638 205 -307 85 -409 133 -527 243 -135 127 -220 280
-252 452 -15 77 -16 244 -14 1560 l3 1475 33 95 c42 121 103 217 189 302 81
79 147 121 268 172 527 223 948 611 1265 1168 72 127 81 156 54 182 -29 29
-55 18 -138 -62 -367 -355 -835 -616 -1309 -731 -236 -57 -317 -66 -617 -66
-300 0 -381 9 -617 66 -475 115 -931 370 -1310 731 -84 79 -109 91 -137 62z"/>
</g>
</svg>
